<?xml version="1.0" encoding="UTF-8"?>
<svg width="256px" height="245px" viewBox="0 0 245 256" version="1.1" xmlns="http://www.w3.org/2000/svg" xmlns:xlink="http://www.w3.org/1999/xlink">
    <!-- Generator: Sketch 41.2 (35397) - http://www.bohemiancoding.com/sketch -->
    <title>cc_large</title>
    <desc>Created with Sketch.</desc>
    <defs>
        <rect id="path-1" x="0" y="197" width="200" height="200"></rect>
        <mask id="mask-2" maskContentUnits="userSpaceOnUse" maskUnits="objectBoundingBox" x="0" y="0" width="200" height="200" fill="white">
            <use xlink:href="#path-1"></use>
        </mask>
        <rect id="path-3" x="0" y="0" width="200" height="200"></rect>
        <mask id="mask-4" maskContentUnits="userSpaceOnUse" maskUnits="objectBoundingBox" x="0" y="0" width="200" height="200" fill="white">
            <use xlink:href="#path-3"></use>
        </mask>
        <rect id="path-5" x="0" y="394" width="200" height="200"></rect>
        <mask id="mask-6" maskContentUnits="userSpaceOnUse" maskUnits="objectBoundingBox" x="0" y="0" width="200" height="200" fill="white">
            <use xlink:href="#path-5"></use>
        </mask>
    </defs>
    <g id="Page-1" stroke="none" stroke-width="1" fill="none" fill-rule="evenodd">
        <g id="cc_large" transform="translate(0.000000, 1.000000)">
            <path d="M244.735339,67.9713169 C244.745138,67.3308736 244.605157,66.7401728 244.315386,66.1990153 C244.025585,65.657652 243.608325,65.3309566 243.063628,65.2190893 L240.241067,64.639538 C239.696356,64.527719 239.271878,64.6825357 238.967644,65.1041925 C238.663417,65.526129 238.506553,66.0591001 238.497029,66.7029415 L237.985901,99.6223748 L221.905398,96.7971909 L222.380036,63.4307707 C222.388826,62.7782248 222.247935,62.1770218 221.957354,61.6269645 C221.66674,61.0767072 221.249024,60.7457272 220.704229,60.6341804 L217.881163,60.0562899 C217.336354,59.9447914 216.912187,60.1043718 216.60867,60.5352335 C216.305162,60.9663727 216.149171,61.5099658 216.140673,62.1658526 L214.933654,143.84273 C214.922644,144.506872 215.060723,145.108017 215.347884,145.645953 C215.635017,146.183678 216.04939,146.488773 216.591027,146.561392 L219.397732,146.937564 C219.939384,147.010135 220.362173,146.81822 220.666101,146.362034 C220.970036,145.906131 221.127649,145.347915 221.138917,144.687226 L221.759755,106.396826 L237.830131,109.092723 L237.170527,146.864417 C237.158613,147.516113 237.295927,148.10628 237.582463,148.634707 C237.868972,149.162917 238.283082,149.463094 238.824816,149.535396 L241.632021,149.909927 C242.173769,149.982181 242.596965,149.794709 242.90161,149.34773 C243.206263,148.901035 243.364677,148.353676 243.376833,147.705487 L244.735339,67.9713169 Z M281.974536,119.89626 L266.425351,117.336644 L274.165768,80.9023988 L275.575839,81.1817328 L281.974536,119.89626 Z M280.74841,75.3135433 C280.479609,73.701265 279.899616,72.8029882 279.008551,72.6190851 L271.06294,70.9802069 C270.171812,70.7965112 269.564224,71.4573365 269.240142,72.9635614 L260.393573,114.191749 C260.069454,115.652306 259.894103,117.098511 259.867485,118.529744 L259.263346,149.853872 C259.250592,150.493013 259.387197,151.072108 259.673156,151.590945 C259.959089,152.109558 260.372961,152.404778 260.91479,152.476765 L263.722491,152.849665 C264.264335,152.921605 264.687913,152.738619 264.993228,152.30093 C265.298548,151.863526 265.457708,151.327119 265.470688,150.69154 L265.951393,126.543649 L282.010228,129.054464 L281.507667,152.85109 C281.494126,153.477397 281.630069,154.045177 281.915491,154.554213 C282.200889,155.063022 282.614542,155.353178 283.156468,155.424848 L285.964669,155.796107 C286.506609,155.86773 286.93055,155.689334 287.236494,155.26114 C287.542443,154.833235 287.702301,154.308023 287.716051,153.685332 L288.370559,123.164489 C288.399552,121.769823 288.280364,120.350991 288.012959,118.907418 L280.74841,75.3135433 Z M324.31853,130.469002 C326.47453,129.390833 328.178182,127.552376 329.429316,124.954721 C330.680452,122.364743 331.348154,119.290323 331.432006,115.727065 L331.7746,100.936715 C331.884162,96.1245716 330.826553,91.8072671 328.601491,87.9721819 C326.375026,84.1236476 323.603488,81.850128 320.287875,81.1618877 L307.816426,78.5758768 C307.272009,78.4630888 306.846737,78.6030375 306.540616,78.9959327 C306.234501,79.3891147 306.075328,79.8888852 306.063079,80.4950677 L304.421006,155.925094 C304.406716,156.537981 304.542031,157.093929 304.826947,157.592721 C305.111841,158.091278 305.525291,158.376144 306.067316,158.447488 L308.876032,158.817056 C309.418071,158.888352 309.842363,158.714758 310.148908,158.296498 C310.455458,157.878528 310.615982,157.365023 310.630463,156.755808 L311.252566,129.964771 L318.137061,131.062393 L324.747878,158.753783 C325.10673,160.232784 325.75429,161.033342 326.690669,161.156071 L330.313043,161.630618 C331.150885,161.740328 331.581164,161.347551 331.603849,160.452385 C331.609515,160.228611 331.523204,159.730684 331.344889,158.958432 L324.31853,130.469002 Z M325.126141,114.95182 C325.072779,117.267357 324.459047,119.149735 323.28518,120.601426 C322.111391,122.057178 320.734533,122.65392 319.154548,122.388605 L311.452137,121.095143 L312.159163,88.4438303 L319.875481,89.9792666 C321.45827,90.2943774 322.800138,91.4048909 323.900836,93.3083081 C325.001189,95.208438 325.525537,97.3118153 325.47396,99.6214885 L325.126141,114.95182 Z M374.529235,167.394269 C374.923653,167.445442 375.274863,167.276389 375.582867,166.887334 C375.890873,166.498577 376.056038,165.912682 376.07834,165.129491 L376.178378,161.606178 C376.200538,160.823452 376.069692,160.198309 375.785847,159.730499 C375.501984,159.262438 375.16277,159.000926 374.768218,158.946149 L356.940403,156.467577 L358.607114,91.3039675 C358.62109,90.728376 358.484899,90.1939758 358.198535,89.700557 C357.912149,89.2069032 357.496848,88.9032347 356.952648,88.789734 L354.058453,88.1862473 C353.514238,88.0727959 353.088545,88.2021616 352.781378,88.5745578 C352.474217,88.947246 352.31375,89.4233444 352.299963,90.0026682 L350.481409,162.063474 C350.465805,162.648768 350.600025,163.180393 350.884065,163.658128 C351.168086,164.135617 351.581201,164.409617 352.123426,164.480305 L374.529235,167.394269 Z M418.021258,173.011493 C418.415813,173.062216 418.767471,172.902986 419.076232,172.534032 C419.384994,172.16538 419.551138,171.608272 419.574644,170.862538 L419.680137,167.507662 C419.703517,166.762341 419.573575,166.16623 419.290316,165.719081 C419.007044,165.27167 418.668072,165.020655 418.273414,164.966228 L400.07083,162.452322 L400.837191,136.412073 L416.686859,139.06589 C417.081868,139.132024 417.433624,138.986646 417.742129,138.629983 C418.050635,138.273621 418.216105,137.723323 418.238519,136.978923 L418.336057,133.731509 C418.358348,132.987514 418.227391,132.386677 417.943191,131.928753 C417.658975,131.470575 417.319298,131.206517 416.924172,131.136772 L401.069587,128.338795 L401.690307,106.338209 L419.338481,109.885913 C419.733936,109.965486 420.085847,109.833103 420.394216,109.488988 C420.702587,109.145172 420.867559,108.603403 420.889115,107.863515 L420.985831,104.534943 C421.00726,103.795467 420.875468,103.193073 420.590457,102.727516 C420.305429,102.261709 419.965117,101.98711 419.569534,101.903912 L397.390139,97.2461814 C396.846113,97.1321082 396.420115,97.2512549 396.112151,97.6038388 C395.804189,97.9567196 395.642721,98.4099322 395.627735,98.9632841 L393.672949,167.769837 C393.656343,168.32851 393.789737,168.836673 394.073129,169.294103 C394.356505,169.751277 394.769393,170.014808 395.311804,170.084882 L418.021258,173.011493 Z M450.913109,178.209071 C455.402308,178.776471 459.02817,177.432845 461.790576,174.197607 C464.552981,170.987721 466.014441,167.055968 466.174303,162.385485 C466.31808,158.165338 465.675931,154.417349 464.247929,151.131835 C462.819304,147.835799 461.034356,145.147574 458.89331,143.068295 C456.751925,140.980061 454.605982,139.01243 452.455523,137.166397 C450.304771,135.31278 448.494413,133.283495 447.024411,131.079216 C445.554057,128.868287 444.859909,126.450736 444.942023,123.832231 C445.025897,121.149226 445.849861,119.040967 447.414165,117.51209 C448.978508,115.990373 450.84802,115.452739 453.022644,115.893888 C455.098394,116.315077 456.837035,117.559865 458.238353,119.623756 C459.639365,121.68173 460.382788,123.686084 460.468724,125.641103 C460.525921,126.944331 461.07324,127.694768 462.110735,127.892495 L464.926771,128.429251 C465.470212,128.532847 465.896428,128.421539 466.205417,128.095553 C466.514407,127.769873 466.677274,127.352275 466.694009,126.842557 C466.810858,123.275502 465.641306,119.482548 463.184911,115.446835 C460.727385,111.390422 457.421955,108.913102 453.26938,108.03069 C449.363851,107.201231 445.986453,108.208554 443.137381,111.070673 C440.288447,113.95721 438.785302,117.979532 438.627016,123.12203 C438.504515,127.080238 439.165019,130.602157 440.608545,133.679288 C442.051458,136.747189 443.845914,139.272368 445.992119,141.25561 C448.137994,143.230627 450.273319,145.130182 452.398129,146.954803 C454.522666,148.771867 456.312121,150.950081 457.766387,153.489094 C459.220249,156.02004 459.891833,158.925871 459.781112,162.213726 C459.693967,164.793441 458.85422,166.894718 457.262089,168.522496 C455.669981,170.157737 453.640386,170.810469 451.173313,170.474997 C448.508919,170.112543 446.459119,168.779073 445.023625,166.469296 C443.587782,164.152329 442.921353,161.41062 443.024297,158.250553 C443.041415,157.724005 442.908317,157.240976 442.625,156.80124 C442.341671,156.361239 441.928536,156.099873 441.385609,156.017337 L438.572272,155.589595 C438.029351,155.507038 437.603449,155.641966 437.294566,155.994609 C436.985684,156.347556 436.822739,156.789389 436.805722,157.319909 C436.632775,162.69355 437.794144,167.387958 440.289915,171.38418 C442.784649,175.358925 446.325418,177.628641 450.913109,178.209071 Z M500.510066,126.289968 L510.218271,128.261444 C510.613503,128.341749 510.965761,128.231776 511.275044,127.931756 C511.584326,127.632047 511.750745,127.15225 511.774289,126.492175 L511.880023,123.522542 C511.903472,122.86278 511.773349,122.321625 511.489658,121.89883 C511.205957,121.475762 510.866456,121.22205 510.471162,121.137902 L484.82376,115.687607 C484.428383,115.603731 484.076173,115.717037 483.76713,116.027755 C483.458087,116.33878 483.292089,116.837066 483.269124,117.522428 L483.165541,120.607329 C483.142471,121.293034 483.272872,121.853152 483.556749,122.287434 C483.840614,122.72145 484.180191,122.978404 484.575487,123.058498 L494.28465,125.026825 L492.311806,180.621699 C492.293747,181.116865 492.425986,181.56908 492.708522,181.97811 C492.99105,182.38686 493.40373,182.625469 493.946569,182.694139 L496.7595,183.049854 C497.302354,183.118477 497.728634,182.987139 498.038338,182.65608 C498.34804,182.325331 498.51195,181.914542 498.530062,181.423506 L500.510066,126.289968 Z M556.28935,145.732352 C556.449869,141.621065 555.244728,137.730166 552.673965,134.040164 C550.102571,130.326413 546.618432,127.987669 542.221922,127.042079 C537.726448,126.075783 534.085566,126.904996 531.29927,129.548749 C528.512809,132.218402 527.03926,135.73717 526.878185,140.087479 L525.710629,171.110075 C525.543502,175.480266 526.729522,179.487555 529.268828,183.112289 C531.807599,186.713194 535.322883,188.783481 539.815188,189.340674 C544.208921,189.885095 547.814978,188.735481 550.63305,185.91221 C553.450865,183.115608 554.94288,179.661991 555.108801,175.532958 L556.28935,145.732352 Z M548.810063,174.691552 C548.714759,177.089504 547.878815,179.06825 546.302342,180.633486 C544.725793,182.207042 542.653864,182.824955 540.08664,182.480886 C537.470092,182.130057 535.44431,180.950608 534.009145,178.936989 C532.573814,176.91584 531.904783,174.643966 532.001996,172.127609 L533.178857,141.207706 C533.270606,138.760393 534.103409,136.783702 535.677399,135.283245 C537.251332,133.79105 539.347272,133.316456 541.96523,133.853371 C544.53375,134.380297 546.537482,135.68377 547.976306,137.758135 C549.41493,139.825084 550.088115,142.049498 549.995839,144.437498 L548.810063,174.691552 Z M600.722366,142.05276 C600.739856,141.632917 600.607026,141.233855 600.323878,140.85534 C600.040726,140.476531 599.627577,140.228524 599.084436,140.111546 L596.269937,139.50551 C595.726781,139.38858 595.300515,139.457068 594.991141,139.711212 C594.681762,139.965678 594.518327,140.305099 594.500836,140.72925 L593.047708,175.479908 L593.559351,184.476666 L593.11489,184.413865 L591.743886,178.096766 L579.83464,137.613365 C579.483241,136.443277 578.937138,135.778223 578.196366,135.619114 L573.973882,134.712473 C573.430629,134.595863 573.004301,134.670339 572.6949,134.936133 C572.385496,135.202246 572.222067,135.555141 572.20461,135.994595 L569.98685,190.566158 C569.968464,191.008669 570.100506,191.414511 570.382981,191.783443 C570.665453,192.152079 571.078275,192.370072 571.62145,192.437638 L574.436123,192.787632 C574.979312,192.855151 575.405953,192.742777 575.716041,192.450755 C576.026124,192.159054 576.190358,191.794218 576.20874,191.356026 L577.670104,156.023813 L577.166401,146.365427 L577.610845,146.453293 L579.052562,153.234106 L590.875773,193.214075 C591.224977,194.333281 591.769972,194.938289 592.510788,195.030023 L596.733523,195.552629 C597.276809,195.619831 597.703504,195.513061 598.013603,195.232568 C598.323696,194.952397 598.487907,194.601128 598.506233,194.178536 L600.722366,142.05276 Z" id="HARLESTON" fill="#000000"></path>
            <path d="M96.5,94.5 L103.5,94.5" id="Line" stroke="#000000" stroke-width="3" stroke-linecap="square"></path>
            <path d="M96.5,101.5 L103.5,101.5" id="Line" stroke="#000000" stroke-width="3" stroke-linecap="square"></path>
            <path d="M14.5,66.5 L95.5061726,66.5" id="Line" stroke="#000000" stroke-width="3" stroke-linecap="square"></path>
            <path d="M12.5,75.5 L93.5061726,75.5" id="Line" stroke="#000000" stroke-width="3" stroke-linecap="square"></path>
            <path d="M14.5,66.5 L95.5061726,66.5" id="Line" stroke="#000000" stroke-width="3" stroke-linecap="square"></path>
            <path d="M14.5,462.5 L95.5061726,462.5" id="Line" stroke="#000000" stroke-width="3" stroke-linecap="square"></path>
            <path d="M12.5,471.5 L93.5061726,471.5" id="Line" stroke="#000000" stroke-width="3" stroke-linecap="square"></path>
            <use id="Rectangle" stroke="#000000" mask="url(#mask-2)" stroke-width="6" xlink:href="#path-1"></use>
            <use id="Rectangle" stroke="#000000" mask="url(#mask-4)" stroke-width="6" xlink:href="#path-3"></use>
            <path d="M187.5,12.5 L12.5,12.5" id="Line" stroke="#000000" stroke-width="3" stroke-linecap="square"></path>
            <path d="M196.5,36.5 L612.085381,130.786138" id="Line" stroke="#000000" stroke-width="3" stroke-linecap="square"></path>
            <path d="M12.5,178.5 L93.5061726,178.5" id="Line" stroke="#000000" stroke-width="3" stroke-linecap="square"></path>
            <path d="M104.5,14.5 L104.5,185.5" id="Line" stroke="#000000" stroke-width="3" stroke-linecap="square"></path>
            <path d="M97.5,13.4852071 L97.5,186.5" id="Line" stroke="#000000" stroke-width="5" stroke-linecap="square"></path>
            <path d="M14.5,131.5 L95.5061726,131.5" id="Line" stroke="#000000" stroke-width="3" stroke-linecap="square"></path>
            <path d="M12.5,122.5 L93.5061726,122.5" id="Line" stroke="#000000" stroke-width="3" stroke-linecap="square"></path>
            <path d="M14.5,21.5 L95.5061726,21.5" id="Line" stroke="#000000" stroke-width="3" stroke-linecap="square"></path>
            <path d="M12.5,13.5 L12.5,187.5" id="Line" stroke="#000000" stroke-width="3" stroke-linecap="square"></path>
            <path d="M12.5,187.5 L187.502857,187.5" id="Line" stroke="#000000" stroke-width="3" stroke-linecap="square"></path>
            <path d="M91.5,98 L96.5,98" id="Line" stroke="#000000" stroke-width="8" stroke-linecap="square"></path>
            <path d="M96.5,488.5 L103.5,488.5" id="Line" stroke="#000000" stroke-width="3" stroke-linecap="square"></path>
            <path d="M96.5,495.5 L103.5,495.5" id="Line" stroke="#000000" stroke-width="3" stroke-linecap="square"></path>
            <path d="M187.511428,406.5 L12.5,406.5" id="Line" stroke="#000000" stroke-width="3" stroke-linecap="square"></path>
            <path d="M12.5,572.5 L93.5061726,572.5" id="Line" stroke="#000000" stroke-width="3" stroke-linecap="square"></path>
            <text id="C" font-family="DecimaMonoPro" font-size="127" font-weight="normal" letter-spacing="11.8139544" fill="#000000">
                <tspan x="124" y="538">C</tspan>
            </text>
            <path d="M104.5,408.5 L104.5,579.5" id="Line" stroke="#000000" stroke-width="3" stroke-linecap="square"></path>
            <path d="M97.5,407.485207 L97.5,580.5" id="Line" stroke="#000000" stroke-width="5" stroke-linecap="square"></path>
            <path d="M14.5,526.5 L95.5061726,526.5" id="Line" stroke="#000000" stroke-width="3" stroke-linecap="square"></path>
            <path d="M12.5,517.5 L93.5061726,517.5" id="Line" stroke="#000000" stroke-width="3" stroke-linecap="square"></path>
            <path d="M14.5,415.5 L95.5061726,415.5" id="Line" stroke="#000000" stroke-width="3" stroke-linecap="square"></path>
            <path d="M12.5,407.5 L12.5,581.5" id="Line" stroke="#000000" stroke-width="3" stroke-linecap="square"></path>
            <path d="M12.5,581.5 L187.5,581.5" id="Line" stroke="#000000" stroke-width="3" stroke-linecap="square"></path>
            <path d="M91.5,492 L96.5,492" id="Line" stroke="#000000" stroke-width="8" stroke-linecap="square"></path>
            <path d="M14.5,264.5 L95.5061726,264.5" id="Line" stroke="#000000" stroke-width="3" stroke-linecap="square"></path>
            <path d="M14.5,218.5 L95.5061726,218.5" id="Line" stroke="#000000" stroke-width="3" stroke-linecap="square"></path>
            <path d="M104.5,218.5 L185.506173,218.5" id="Line" stroke="#000000" stroke-width="3" stroke-linecap="square"></path>
            <path d="M13.5,273.5 L94.5061726,273.5" id="Line" stroke="#000000" stroke-width="3" stroke-linecap="square"></path>
            <path d="M106.5,264.5 L187.506173,264.5" id="Line" stroke="#000000" stroke-width="3" stroke-linecap="square"></path>
            <path d="M105.5,273.5 L186.506173,273.5" id="Line" stroke="#000000" stroke-width="3" stroke-linecap="square"></path>
            <path d="M106.5,320.5 L187.506173,320.5" id="Line" stroke="#000000" stroke-width="3" stroke-linecap="square"></path>
            <path d="M105.5,329.5 L186.506173,329.5" id="Line" stroke="#000000" stroke-width="3" stroke-linecap="square"></path>
            <path d="M105.5,375.5 L186.506173,375.5" id="Line" stroke="#000000" stroke-width="3" stroke-linecap="square"></path>
            <path d="M96.5,291.5 L103.5,291.5" id="Line" stroke="#000000" stroke-width="3" stroke-linecap="square"></path>
            <path d="M96.5,298.5 L103.5,298.5" id="Line" stroke="#000000" stroke-width="3" stroke-linecap="square"></path>
            <path d="M187.5,209.5 L13.5,209.5" id="Line" stroke="#000000" stroke-width="3" stroke-linecap="square"></path>
            <path d="M13.5,375.5 L94.5061726,375.5" id="Line" stroke="#000000" stroke-width="3" stroke-linecap="square"></path>
            <path d="M104.5,211.5 L104.5,382.5" id="Line" stroke="#000000" stroke-width="3" stroke-linecap="square"></path>
            <path d="M97.5,210.485207 L97.5,383.5" id="Line" stroke="#000000" stroke-width="5" stroke-linecap="square"></path>
            <path d="M14.5,329.5 L95.5061726,329.5" id="Line" stroke="#000000" stroke-width="3" stroke-linecap="square"></path>
            <path d="M13.5,320.5 L94.5061726,320.5" id="Line" stroke="#000000" stroke-width="3" stroke-linecap="square"></path>
            <path d="M13.5,210.5 L13.5,384.5" id="Line" stroke="#000000" stroke-width="3" stroke-linecap="square"></path>
            <path d="M187.5,210.5 L187.5,384.5" id="Line" stroke="#000000" stroke-width="3" stroke-linecap="square"></path>
            <path d="M187.5,407.5 L187.5,429.5" id="Line" stroke="#000000" stroke-width="3" stroke-linecap="square"></path>
            <path d="M187.5,559.5 L187.5,581.5" id="Line" stroke="#000000" stroke-width="3" stroke-linecap="square"></path>
            <path d="M13.5,384.5 L187.5,384.5" id="Line" stroke="#000000" stroke-width="3" stroke-linecap="square"></path>
            <path d="M91.5,295 L96.5,295" id="Line" stroke="#000000" stroke-width="8" stroke-linecap="square"></path>
            <use id="Rectangle" stroke="#000000" mask="url(#mask-6)" stroke-width="6" xlink:href="#path-5"></use>
            <path d="M123.5,430.5 L123.5,557.818498" id="Line" stroke="#000000" stroke-width="3" stroke-linecap="square"></path>
            <path d="M198.5,1.5 L619.91311,109.37025" id="Line" stroke="#000000" stroke-width="3" stroke-linecap="square"></path>
            <path d="M201.5,198.5 L620.1262,232.442665" id="Line" stroke="#000000" stroke-width="3" stroke-linecap="square"></path>
            <path d="M198.5,395.5 L618.692133,356.479856" id="Line" stroke="#000000" stroke-width="3" stroke-linecap="square"></path>
            <path d="M199.5,592.5 L619.721037,480.075448" id="Line" stroke="#000000" stroke-width="3" stroke-linecap="square"></path>
            <path d="M620.5,110.5 L620.5,478.501359" id="Line" stroke="#000000" stroke-width="3" stroke-linecap="square"></path>
            <path d="M211.5,405.5 L612.335178,364.166614" id="Line" stroke="#000000" stroke-width="3" stroke-linecap="square"></path>
            <path d="M211.5,577.5 L612.91425,474.646559" id="Line" stroke="#000000" stroke-width="3" stroke-linecap="square"></path>
            <path d="M212.5,210.5 L613.488915,238.710275" id="Line" stroke="#000000" stroke-width="3" stroke-linecap="square"></path>
            <path d="M212.5,382.5 L611.48922,350.340063" id="Line" stroke="#000000" stroke-width="3" stroke-linecap="square"></path>
            <path d="M214.5,18.5 L612.750848,116.062712" id="Line" stroke="#000000" stroke-width="3" stroke-linecap="square"></path>
            <path d="M213.5,187.5 L613.5,225.5" id="Line" stroke="#000000" stroke-width="3" stroke-linecap="square"></path>
            <path d="M225.5,212.5 L225.5,380.511904" id="Line" stroke="#000000" stroke-width="3" stroke-linecap="square"></path>
            <path d="M225.5,212.5 L225.5,380.511904" id="Line" stroke="#000000" stroke-width="3" stroke-linecap="square"></path>
            <path d="M238.5,212.5 L238.5,380.511904" id="Line" stroke="#000000" stroke-width="3" stroke-linecap="square"></path>
            <path d="M251.5,213.5 L251.5,379.509995" id="Line" stroke="#000000" stroke-width="3" stroke-linecap="square"></path>
            <path d="M264.5,215.5 L264.5,377.509995" id="Line" stroke="#000000" stroke-width="3" stroke-linecap="square"></path>
            <path d="M277.5,215.5 L277.5,376.509995" id="Line" stroke="#000000" stroke-width="3" stroke-linecap="square"></path>
            <path d="M290.5,217.5 L290.5,375.509995" id="Line" stroke="#000000" stroke-width="3" stroke-linecap="square"></path>
            <path d="M303.5,217.5 L303.5,372.509995" id="Line" stroke="#000000" stroke-width="3" stroke-linecap="square"></path>
            <path d="M316.5,219.5 L316.5,373.509995" id="Line" stroke="#000000" stroke-width="3" stroke-linecap="square"></path>
            <path d="M329.5,221.5 L329.5,372.509995" id="Line" stroke="#000000" stroke-width="3" stroke-linecap="square"></path>
            <path d="M342.5,221.5 L342.5,371.509995" id="Line" stroke="#000000" stroke-width="3" stroke-linecap="square"></path>
            <path d="M355.5,221.5 L355.5,370.509995" id="Line" stroke="#000000" stroke-width="3" stroke-linecap="square"></path>
            <path d="M368.5,221.5 L368.5,369.509995" id="Line" stroke="#000000" stroke-width="3" stroke-linecap="square"></path>
            <path d="M381.5,222.5 L381.5,368.509995" id="Line" stroke="#000000" stroke-width="3" stroke-linecap="square"></path>
            <path d="M394.5,224.5 L394.5,367.509995" id="Line" stroke="#000000" stroke-width="3" stroke-linecap="square"></path>
            <path d="M407.5,224.5 L407.5,366.509995" id="Line" stroke="#000000" stroke-width="3" stroke-linecap="square"></path>
            <path d="M394.5,224.5 L394.5,365.5" id="Line" stroke="#000000" stroke-width="3" stroke-linecap="square"></path>
            <path d="M420.5,226.5 L420.5,365.509995" id="Line" stroke="#000000" stroke-width="3" stroke-linecap="square"></path>
            <path d="M433.5,228.5 L433.5,363.509995" id="Line" stroke="#000000" stroke-width="3" stroke-linecap="square"></path>
            <path d="M446.5,229.5 L446.5,363.509995" id="Line" stroke="#000000" stroke-width="3" stroke-linecap="square"></path>
            <path d="M459.5,229.5 L459.5,362.509995" id="Line" stroke="#000000" stroke-width="3" stroke-linecap="square"></path>
            <path d="M472.5,229.5 L472.5,361.509995" id="Line" stroke="#000000" stroke-width="3" stroke-linecap="square"></path>
            <path d="M485.5,231.5 L485.5,360.509995" id="Line" stroke="#000000" stroke-width="3" stroke-linecap="square"></path>
            <path d="M497.5,233.5 L497.5,359.510002" id="Line" stroke="#000000" stroke-width="3" stroke-linecap="square"></path>
            <path d="M509.5,233.5 L509.5,358.510002" id="Line" stroke="#000000" stroke-width="3" stroke-linecap="square"></path>
            <path d="M521.5,233.5 L521.5,357.510002" id="Line" stroke="#000000" stroke-width="3" stroke-linecap="square"></path>
            <path d="M532.5,233.5 L532.5,356.510002" id="Line" stroke="#000000" stroke-width="3" stroke-linecap="square"></path>
            <path d="M543.5,234.5 L543.5,355.510002" id="Line" stroke="#000000" stroke-width="3" stroke-linecap="square"></path>
            <path d="M554.5,236.5 L554.5,354.510002" id="Line" stroke="#000000" stroke-width="3" stroke-linecap="square"></path>
            <path d="M564.5,236.5 L564.5,353.510002" id="Line" stroke="#000000" stroke-width="3" stroke-linecap="square"></path>
            <path d="M575.5,236.5 L575.5,352.510002" id="Line" stroke="#000000" stroke-width="3" stroke-linecap="square"></path>
            <path d="M586.5,238.5 L586.5,351.510002" id="Line" stroke="#000000" stroke-width="3" stroke-linecap="square"></path>
            <path d="M596.5,238.5 L596.5,350.510002" id="Line" stroke="#000000" stroke-width="3" stroke-linecap="square"></path>
            <path d="M605.5,238.5 L605.5,350.510002" id="Line" stroke="#000000" stroke-width="3" stroke-linecap="square"></path>
            <path d="M212.5,211.5 L212.5,382.5" id="Line" stroke="#000000" stroke-width="3" stroke-linecap="square"></path>
            <path d="M613.5,240.5 L613.5,350.5" id="Line" stroke="#000000" stroke-width="3" stroke-linecap="square"></path>
            <path d="M613.5,116.5 L613.5,224.5" id="Line" stroke="#000000" stroke-width="3" stroke-linecap="square"></path>
            <path d="M613.5,364.5 L613.5,473.5" id="Line" stroke="#000000" stroke-width="3" stroke-linecap="square"></path>
            <path d="M211.5,576.5 L211.5,557.5" id="Line" stroke="#000000" stroke-width="3" stroke-linecap="square"></path>
            <path d="M211.5,428.5 L211.5,406.5" id="Line" stroke="#000000" stroke-width="3" stroke-linecap="square"></path>
            <path d="M242.168139,465.596443 C242.141564,459.866433 240.727045,455.04678 237.926025,451.120578 C235.126962,447.173075 231.457946,445.53304 226.916953,446.217452 C222.273161,446.918622 218.578142,449.682542 215.830565,454.525714 C213.080434,459.392286 211.709574,464.820347 211.719929,470.793361 L211.79432,513.330073 C211.804877,519.314199 213.20241,524.247133 215.988362,528.111906 C218.776246,531.955424 222.511794,533.334074 227.19273,532.264954 C231.769708,531.22083 235.449988,528.182478 238.232408,523.166785 C241.012231,518.175085 242.387787,512.81769 242.361026,507.077543 L242.168139,465.596443 Z M235.82073,508.555401 C235.83416,511.877885 235.062924,514.932967 233.506409,517.725959 C231.949077,520.526448 229.834231,522.222853 227.162221,522.809928 C224.438466,523.408807 222.289176,522.638929 220.71508,520.494877 C219.141589,518.344125 218.350945,515.537808 218.342701,512.081289 L218.24186,469.555169 C218.233915,466.184943 219.006546,463.127451 220.559135,460.387958 C222.110916,457.655917 224.240059,456.076701 226.946962,455.645081 C229.602529,455.222069 231.713393,456.114844 233.280215,458.318065 C234.847652,460.514621 235.638261,463.268657 235.651588,466.585484 L235.82073,508.555401 Z M287.426476,440.588066 C287.421099,439.98691 287.263603,439.483705 286.954005,439.078256 C286.644427,438.672554 286.209548,438.511118 285.649345,438.594155 L282.7463,439.024796 C282.186031,439.107971 281.754993,439.39891 281.453175,439.897807 C281.151331,440.396985 281.002919,440.94912 281.007962,441.554011 L281.420993,491.048847 L282.448364,503.470709 L281.98739,503.567245 L280.225799,495.273263 L265.872965,443.842402 C265.454653,442.369433 264.863307,441.689714 264.098831,441.804095 L259.740936,442.456836 C259.180223,442.540909 258.748378,442.837567 258.445389,443.347005 C258.14237,443.856725 257.992751,444.420835 257.996551,445.039131 L258.468887,521.662691 C258.47272,522.282755 258.630097,522.790795 258.941033,523.186608 C259.251989,523.582167 259.689865,523.71626 260.254633,523.589098 L263.180903,522.930555 C263.745573,522.803543 264.180344,522.47412 264.485205,521.942484 C264.790037,521.411131 264.940349,520.837411 264.936164,520.221122 L264.598779,470.463293 L263.589623,457.237564 L264.048945,457.162239 L265.87229,465.971439 L280.172363,516.835863 C280.595154,518.262863 281.191258,518.889877 281.960576,518.717765 L286.345139,517.737623 C286.909167,517.611634 287.342983,517.288069 287.646577,516.76712 C287.950143,516.246455 288.099211,515.68483 288.093804,515.082043 L287.426476,440.588066 Z M321.865957,441.894664 L331.86661,440.35553 C332.273688,440.293031 332.627026,440.022692 332.926609,439.544712 C333.226168,439.067012 333.370686,438.433206 333.360184,437.643103 L333.312927,434.087909 C333.302427,433.297926 333.141757,432.709777 332.830932,432.32326 C332.520126,431.936492 332.161333,431.772514 331.754537,431.831522 L305.351961,435.686336 C304.944804,435.746161 304.590881,436.020191 304.290177,436.508628 C303.989448,436.997345 303.843345,437.648536 303.851889,438.462008 L303.890343,442.122926 C303.898889,442.936528 304.058282,443.541641 304.368537,443.938058 C304.678812,444.334222 305.037688,444.500541 305.445145,444.437213 L315.451502,442.885611 L316.217476,508.891151 C316.224286,509.477576 316.383837,509.956892 316.696141,510.328898 C317.008464,510.700651 317.446229,510.824151 318.009411,510.699609 L320.92748,510.054684 C321.49057,509.930309 321.923018,509.615533 322.224816,509.110548 C322.526588,508.605846 322.673905,508.062255 322.666786,507.479575 L321.865957,441.894664 Z M373.007693,467.330359 L356.955146,470.305065 L363.67803,435.508151 L365.126658,435.289208 L373.007693,467.330359 Z M370.207969,428.386341 C369.880027,427.04688 369.258987,426.44189 368.34478,426.572027 L360.191929,427.735366 C359.277458,427.866163 358.678776,428.653181 358.39585,430.097084 L350.655795,469.563775 C350.369858,470.963895 350.23631,472.300909 350.255204,473.574178 L350.667966,501.38764 C350.676373,501.95409 350.837074,502.416387 351.150079,502.774333 C351.4631,503.132027 351.900757,503.249346 352.463027,503.1265 L355.376373,502.490389 C355.938552,502.367719 356.369707,502.061747 356.669829,501.572663 C356.969926,501.083859 357.11562,500.558194 357.106929,499.995468 L356.776262,478.584643 L373.374345,475.370673 L373.732134,496.416464 C373.741538,496.969589 373.902947,497.420549 374.216374,497.769147 C374.529816,498.117494 374.967384,498.230735 375.529056,498.109078 L378.439311,497.479146 C379.000894,497.357672 379.431221,497.057618 379.730282,496.57917 C380.029321,496.101002 380.173996,495.58731 380.164325,495.037893 L379.689451,468.060035 C379.667711,466.824983 379.493186,465.618034 379.165914,464.438601 L370.207969,428.386341 Z M424.645848,487.575549 C425.05343,487.489034 425.405773,487.217041 425.702868,486.759763 C425.999941,486.302762 426.140596,485.714783 426.124847,484.995632 L426.05398,481.759653 C426.038233,481.040592 425.873301,480.516257 425.559196,480.186451 C425.245103,479.856398 424.884383,479.732803 424.477022,479.815864 L414.468986,481.861185 L413.349319,428.093947 L423.319638,426.629454 C423.725487,426.570013 424.076323,426.322082 424.372133,425.885855 C424.667925,425.449902 424.80795,424.873131 424.792225,424.155351 L424.721467,420.925539 C424.705743,420.207848 424.541478,419.674428 424.228682,419.325084 C423.915899,418.975491 423.5567,418.828601 423.151072,418.884608 L396.82521,422.547841 C396.41925,422.60476 396.067909,422.85644 395.771177,423.303076 C395.474423,423.749986 395.33313,424.343945 395.347312,425.084757 L395.411135,428.418632 C395.425319,429.159542 395.588599,429.709585 395.900986,430.06856 C396.213388,430.427285 396.572696,430.576364 396.978894,430.515993 L406.954462,429.037517 L408.049366,483.177831 L398.034275,485.239099 C397.626445,485.323222 397.273473,485.599117 396.975349,486.06698 C396.677204,486.535122 396.535227,487.140452 396.549436,487.882774 L396.613381,491.223447 C396.627592,491.965868 396.791597,492.506868 397.105405,492.846245 C397.419227,493.185373 397.780181,493.31104 398.188249,493.223445 L424.645848,487.575549 Z M470.245347,414.339698 C470.232356,413.84363 470.069079,413.430117 469.755526,413.098972 C469.441985,412.767581 469.006726,412.639183 468.449736,412.713982 L465.563368,413.102019 C465.006322,413.176989 464.580674,413.422151 464.28642,413.837686 C463.992148,414.253491 463.851399,414.711334 463.864185,415.211016 L464.909875,456.085296 L466.090924,466.321522 L465.63358,466.410417 L463.774771,459.596007 L448.818106,417.279235 C448.382052,416.064106 447.784051,415.507831 447.024044,415.611264 L442.691678,416.2018 C442.134258,416.277894 441.708033,416.528795 441.412997,416.954686 C441.117943,417.380849 440.976417,417.850368 440.988433,418.363044 L442.476537,481.869183 C442.488571,482.382869 442.651816,482.800348 442.96628,483.121426 C443.280756,483.442258 443.717982,483.543637 444.277939,483.425772 L447.179316,482.815535 C447.739189,482.69787 448.167224,482.415536 448.463415,481.968714 C448.759586,481.522167 448.901538,481.043978 448.889284,480.533948 L447.89948,439.343261 L446.720433,428.403071 L447.176837,428.33451 L449.108291,435.604583 L463.99811,477.403478 C464.436868,478.572515 465.037717,479.077095 465.800593,478.91808 L470.148512,478.012877 C470.707835,477.896564 471.135162,477.620171 471.430489,477.183878 C471.725797,476.747859 471.866941,476.28146 471.853934,475.784481 L470.245347,414.339698 Z M514.802284,468.825505 C515.20831,468.7429 515.55822,468.493502 515.852006,468.077499 C516.145775,467.661767 516.282816,467.129559 516.263141,466.480683 L516.174605,463.560885 C516.154931,462.912074 515.987529,462.440576 515.672406,462.146203 C515.357293,461.851587 514.996809,461.743795 514.590947,461.823021 L495.863422,465.496995 L495.216972,442.762108 L511.487452,439.995107 C511.892828,439.926494 512.242197,439.68897 512.535551,439.282722 C512.828888,438.876744 512.965763,438.348737 512.946188,437.698512 L512.860769,434.861299 C512.841194,434.211136 512.674112,433.733368 512.359529,433.427804 C512.044956,433.121996 511.685068,433.001638 511.279855,433.066922 L495.016132,435.700097 L494.467801,416.422649 L512.534477,413.901678 C512.939222,413.84554 513.288023,413.619442 513.58087,413.223571 C513.873703,412.827968 514.010295,412.306084 513.990658,411.657731 L513.902295,408.740282 C513.882659,408.091993 513.715765,407.610982 513.401621,407.29706 C513.087488,406.982896 512.728135,406.852104 512.323555,406.90488 L489.634407,409.887946 C489.077746,409.961705 488.652678,410.200829 488.359197,410.605498 C488.065699,411.010437 487.925713,411.456041 487.939251,411.942114 L489.615358,472.146408 C489.628909,472.633334 489.793177,473.028158 490.108168,473.330691 C490.42317,473.63298 490.860098,473.72649 491.418934,473.611429 L514.802284,468.825505 Z M553.816393,438.097017 C555.956292,436.657763 557.597325,434.787604 558.739562,432.48677 C559.881491,430.192527 560.406057,427.708848 560.313492,425.030931 L559.928797,413.902826 C559.803468,410.277821 558.522226,407.35427 556.085415,405.121346 C553.649073,402.874311 550.738701,401.960206 547.35371,402.390454 L534.619343,404.018566 C534.063378,404.089988 533.639313,404.317846 533.347145,404.702317 C533.054963,405.087053 532.916257,405.509937 532.93104,405.970772 L534.761045,463.043488 C534.775838,463.50504 534.940913,463.878431 535.256275,464.163474 C535.571644,464.448276 536.00824,464.534459 536.566047,464.422231 L539.4563,463.841261 C540.01403,463.729255 540.439394,463.47082 540.732391,463.066131 C541.025373,462.66171 541.164381,462.230605 541.149429,461.772622 L540.490657,441.598277 L547.554057,440.370327 L555.672279,458.984823 C556.113966,459.972908 556.816179,460.37078 557.778861,460.17929 L561.502574,459.439556 C562.363763,459.268695 562.78275,458.84881 562.759557,458.179845 C562.753759,458.012605 562.639892,457.670154 562.417961,457.152289 L553.816393,438.097017 Z M553.873682,426.291997 C553.932887,428.035347 553.401707,429.619331 552.279997,431.046697 C551.158092,432.477807 549.787389,433.328452 548.167969,433.596035 L540.272036,434.904518 L539.464976,410.199483 L547.350535,409.12827 C548.967868,408.90929 550.37909,409.355942 551.584343,410.465438 C552.789712,411.571478 553.422039,412.994544 553.481235,414.737288 L553.873682,426.291997 Z M591.263101,453.807896 C595.86702,452.907743 599.465279,450.723933 602.057756,447.2708 C604.649271,443.839355 605.869827,440.214283 605.720139,436.3796 C605.584808,432.912927 604.685338,430.063077 603.021922,427.822519 C601.358769,425.572202 599.376296,423.921476 597.074388,422.871998 C594.772605,421.814959 592.474992,420.857085 590.18152,419.999283 C587.888139,419.135118 585.928848,418.02511 584.303688,416.669514 C582.678689,415.307886 581.82635,413.543504 581.746549,411.380979 C581.664756,409.164513 582.36602,407.194938 583.850127,405.476838 C585.333952,403.764969 587.186367,402.766373 589.40748,402.476756 C591.52751,402.200773 593.359798,402.698214 594.904538,403.96473 C596.449413,405.225912 597.328118,406.638987 597.540569,408.207533 C597.682214,409.252919 598.283143,409.701198 599.343321,409.552645 L602.220788,409.150035 C602.776061,409.07244 603.19899,408.854728 603.489572,408.49707 C603.780144,408.139674 603.917231,407.750919 603.900843,407.330615 C603.786128,404.388603 602.36043,401.643654 599.624109,399.081489 C596.888284,396.500473 593.401388,395.460301 589.162698,395.976467 C585.175895,396.463543 581.834146,398.29703 579.137042,401.491657 C576.438973,404.707531 575.166724,408.448893 575.321033,412.700129 C575.439735,415.970618 576.324382,418.647059 577.975178,420.722661 C579.626244,422.78948 581.600784,424.306534 583.89869,425.27516 C586.196713,426.236801 588.480204,427.139843 590.749142,427.984803 C593.018164,428.823477 594.971958,430.056247 596.610601,431.682372 C598.249427,433.301232 599.12081,435.458693 599.224618,438.160335 C599.306038,440.279394 598.592093,442.236478 597.082558,444.036368 C595.572724,445.842742 593.553282,446.985225 591.024284,447.459527 C588.292701,447.972635 586.123247,447.512268 584.516248,446.072921 C582.909412,444.627127 582.058213,442.601929 581.962531,440.002294 C581.946584,439.569038 581.780905,439.216668 581.465498,438.945005 C581.150098,438.673103 580.714237,438.585805 580.157905,438.683315 L577.274916,439.189164 C576.718517,439.286893 576.294501,439.526063 576.002867,439.906845 C575.711221,440.287892 575.5733,440.6969 575.589115,441.133674 C575.749245,445.556276 577.224763,449.017325 580.01604,451.501987 C582.807808,453.967373 586.557161,454.730518 591.263101,453.807896 Z" id="ONTAINERS" fill="#000000"></path>
            <path d="M199.5,430.5 L613.349365,378.398124" id="Line" stroke="#000000" stroke-width="3" stroke-linecap="square"></path>
            <path d="M329.5,395.5 L329.5,412.5" id="Line" stroke="#000000" stroke-width="3" stroke-linecap="square"></path>
            <path d="M316.5,396.5 L316.5,414.5" id="Line" stroke="#000000" stroke-width="3" stroke-linecap="square"></path>
            <path d="M304.5,397.5 L304.5,415.5" id="Line" stroke="#000000" stroke-width="3" stroke-linecap="square"></path>
            <path d="M290.5,398.5 L290.5,417.5" id="Line" stroke="#000000" stroke-width="3" stroke-linecap="square"></path>
            <path d="M277.5,400.5 L277.5,419.5" id="Line" stroke="#000000" stroke-width="3" stroke-linecap="square"></path>
            <path d="M264.5,402.5 L264.5,421.5" id="Line" stroke="#000000" stroke-width="3" stroke-linecap="square"></path>
            <path d="M251.5,402.5 L251.5,421.5" id="Line" stroke="#000000" stroke-width="3" stroke-linecap="square"></path>
            <path d="M238.5,404.5 L238.5,423.5" id="Line" stroke="#000000" stroke-width="3" stroke-linecap="square"></path>
            <path d="M225.5,405.5 L225.5,425.5" id="Line" stroke="#000000" stroke-width="3" stroke-linecap="square"></path>
            <path d="M199.5,557.5 L612.071756,459.838905" id="Line" stroke="#000000" stroke-width="3" stroke-linecap="square"></path>
            <path d="M123.5,558.5 L198.5,558.5" id="Line" stroke="#000000" stroke-width="3" stroke-linecap="square"></path>
            <path d="M105.5,572.5 L187.5,572.5" id="Line" stroke="#000000" stroke-width="3" stroke-linecap="square"></path>
            <path d="M105.5,415.5 L187.506097,415.5" id="Line" stroke="#000000" stroke-width="3" stroke-linecap="square"></path>
            <path d="M123.493334,430.5 L198.5,430.5" id="Line" stroke="#000000" stroke-width="3" stroke-linecap="square"></path>
            <path d="M605.5,365.5 L605.5,378.5" id="Line" stroke="#000000" stroke-width="3" stroke-linecap="square"></path>
            <path d="M586.5,368.5 L586.5,381.5" id="Line" stroke="#000000" stroke-width="3" stroke-linecap="square"></path>
            <path d="M596.5,366.5 L596.5,379.5" id="Line" stroke="#000000" stroke-width="3" stroke-linecap="square"></path>
            <path d="M575.5,370.5 L575.5,382.5" id="Line" stroke="#000000" stroke-width="3" stroke-linecap="square"></path>
            <path d="M564.5,371.5 L564.5,382.5" id="Line" stroke="#000000" stroke-width="3" stroke-linecap="square"></path>
            <path d="M554.5,372.5 L554.5,384.5" id="Line" stroke="#000000" stroke-width="3" stroke-linecap="square"></path>
            <path d="M543.5,373.5 L543.5,386.5" id="Line" stroke="#000000" stroke-width="3" stroke-linecap="square"></path>
            <path d="M532.5,373.5 L532.5,387.5" id="Line" stroke="#000000" stroke-width="3" stroke-linecap="square"></path>
            <path d="M521.5,375.5 L521.5,387.5" id="Line" stroke="#000000" stroke-width="3" stroke-linecap="square"></path>
            <path d="M509.5,376.5 L509.5,388.5" id="Line" stroke="#000000" stroke-width="3" stroke-linecap="square"></path>
            <path d="M498.5,377.5 L498.5,390.5" id="Line" stroke="#000000" stroke-width="3" stroke-linecap="square"></path>
            <path d="M486.5,378.5 L486.5,393.5" id="Line" stroke="#000000" stroke-width="3" stroke-linecap="square"></path>
            <path d="M472.5,380.5 L472.5,394.5" id="Line" stroke="#000000" stroke-width="3" stroke-linecap="square"></path>
            <path d="M459.5,382.5 L459.5,396.5" id="Line" stroke="#000000" stroke-width="3" stroke-linecap="square"></path>
            <path d="M446.5,383.5 L446.5,398.5" id="Line" stroke="#000000" stroke-width="3" stroke-linecap="square"></path>
            <path d="M433.5,384.5 L433.5,398.5" id="Line" stroke="#000000" stroke-width="3" stroke-linecap="square"></path>
            <path d="M420.5,386.5 L420.5,400.5" id="Line" stroke="#000000" stroke-width="3" stroke-linecap="square"></path>
            <path d="M407.5,387.5 L407.5,403.5" id="Line" stroke="#000000" stroke-width="3" stroke-linecap="square"></path>
            <path d="M394.5,388.5 L394.5,404.5" id="Line" stroke="#000000" stroke-width="3" stroke-linecap="square"></path>
            <path d="M381.5,389.5 L381.5,405.5" id="Line" stroke="#000000" stroke-width="3" stroke-linecap="square"></path>
            <path d="M368.5,390.5 L368.5,408.5" id="Line" stroke="#000000" stroke-width="3" stroke-linecap="square"></path>
            <path d="M355.5,392.5 L355.5,409.5" id="Line" stroke="#000000" stroke-width="3" stroke-linecap="square"></path>
            <path d="M342.5,393.5 L342.5,411.5" id="Line" stroke="#000000" stroke-width="3" stroke-linecap="square"></path>
            <path d="M329.5,528.5 L329.5,545.5" id="Line" stroke="#000000" stroke-width="3" stroke-linecap="square"></path>
            <path d="M316.5,530.5 L316.5,548.5" id="Line" stroke="#000000" stroke-width="3" stroke-linecap="square"></path>
            <path d="M304.5,533.5 L304.5,551.5" id="Line" stroke="#000000" stroke-width="3" stroke-linecap="square"></path>
            <path d="M290.5,537.5 L290.5,556.5" id="Line" stroke="#000000" stroke-width="3" stroke-linecap="square"></path>
            <path d="M277.5,540.5 L277.5,559.5" id="Line" stroke="#000000" stroke-width="3" stroke-linecap="square"></path>
            <path d="M264.5,543.5 L264.5,562.5" id="Line" stroke="#000000" stroke-width="3" stroke-linecap="square"></path>
            <path d="M251.5,547.5 L251.5,566.5" id="Line" stroke="#000000" stroke-width="3" stroke-linecap="square"></path>
            <path d="M238.5,550.5 L238.5,569.5" id="Line" stroke="#000000" stroke-width="3" stroke-linecap="square"></path>
            <path d="M225.5,551.5 L225.5,571.5" id="Line" stroke="#000000" stroke-width="3" stroke-linecap="square"></path>
            <path d="M605.5,461.5 L605.5,474.5" id="Line" stroke="#000000" stroke-width="3" stroke-linecap="square"></path>
            <path d="M586.5,466.5 L586.5,479.5" id="Line" stroke="#000000" stroke-width="3" stroke-linecap="square"></path>
            <path d="M596.5,465.5 L596.5,478.5" id="Line" stroke="#000000" stroke-width="3" stroke-linecap="square"></path>
            <path d="M575.5,469.5 L575.5,481.5" id="Line" stroke="#000000" stroke-width="3" stroke-linecap="square"></path>
            <path d="M564.5,473.5 L564.5,484.5" id="Line" stroke="#000000" stroke-width="3" stroke-linecap="square"></path>
            <path d="M554.5,474.5 L554.5,486.5" id="Line" stroke="#000000" stroke-width="3" stroke-linecap="square"></path>
            <path d="M543.5,478.5 L543.5,491.5" id="Line" stroke="#000000" stroke-width="3" stroke-linecap="square"></path>
            <path d="M532.5,479.5 L532.5,493.5" id="Line" stroke="#000000" stroke-width="3" stroke-linecap="square"></path>
            <path d="M521.5,483.5 L521.5,495.5" id="Line" stroke="#000000" stroke-width="3" stroke-linecap="square"></path>
            <path d="M509.5,486.5 L509.5,498.5" id="Line" stroke="#000000" stroke-width="3" stroke-linecap="square"></path>
            <path d="M498.5,489.5 L498.5,502.5" id="Line" stroke="#000000" stroke-width="3" stroke-linecap="square"></path>
            <path d="M486.5,490.5 L486.5,505.5" id="Line" stroke="#000000" stroke-width="3" stroke-linecap="square"></path>
            <path d="M472.5,495.5 L472.5,509.5" id="Line" stroke="#000000" stroke-width="3" stroke-linecap="square"></path>
            <path d="M459.5,498.5 L459.5,512.5" id="Line" stroke="#000000" stroke-width="3" stroke-linecap="square"></path>
            <path d="M446.5,501.5 L446.5,516.5" id="Line" stroke="#000000" stroke-width="3" stroke-linecap="square"></path>
            <path d="M433.5,504.5 L433.5,518.5" id="Line" stroke="#000000" stroke-width="3" stroke-linecap="square"></path>
            <path d="M420.5,507.5 L420.5,521.5" id="Line" stroke="#000000" stroke-width="3" stroke-linecap="square"></path>
            <path d="M407.5,510.5 L407.5,526.5" id="Line" stroke="#000000" stroke-width="3" stroke-linecap="square"></path>
            <path d="M394.5,512.5 L394.5,528.5" id="Line" stroke="#000000" stroke-width="3" stroke-linecap="square"></path>
            <path d="M381.5,516.5 L381.5,532.5" id="Line" stroke="#000000" stroke-width="3" stroke-linecap="square"></path>
            <path d="M368.5,517.5 L368.5,535.5" id="Line" stroke="#000000" stroke-width="3" stroke-linecap="square"></path>
            <path d="M355.5,521.5 L355.5,538.5" id="Line" stroke="#000000" stroke-width="3" stroke-linecap="square"></path>
            <path d="M342.5,524.5 L342.5,542.5" id="Line" stroke="#000000" stroke-width="3" stroke-linecap="square"></path>
            <path d="M198.5,432.5 L198.5,554.762014" id="Line" stroke="#000000" stroke-width="3" stroke-linecap="square"></path>
            <path d="M105.5,462.5 L122.5,462.5" id="Line" stroke="#000000" stroke-width="3" stroke-linecap="square"></path>
            <path d="M105.5,471.5 L122.5,471.5" id="Line" stroke="#000000" stroke-width="3" stroke-linecap="square"></path>
            <path d="M105.5,517.5 L122.5,517.5" id="Line" stroke="#000000" stroke-width="3" stroke-linecap="square"></path>
            <path d="M105.5,526.5 L122.5,526.5" id="Line" stroke="#000000" stroke-width="3" stroke-linecap="square"></path>
            <text id="C" font-family="DecimaMonoPro" font-size="127" font-weight="normal" letter-spacing="11.8139544" fill="#000000">
                <tspan x="124" y="144">C</tspan>
            </text>
            <path d="M187.5,13.5 L187.5,35.5" id="Line" stroke="#000000" stroke-width="3" stroke-linecap="square"></path>
            <path d="M187.5,165.5 L187.5,187.5" id="Line" stroke="#000000" stroke-width="3" stroke-linecap="square"></path>
            <path d="M123.5,36.5 L123.5,161.5" id="Line" stroke="#000000" stroke-width="3" stroke-linecap="square"></path>
            <path d="M123.5,163.5 L198.5,163.5" id="Line" stroke="#000000" stroke-width="3" stroke-linecap="square"></path>
            <path d="M105.5,178.5 L186.5,178.5" id="Line" stroke="#000000" stroke-width="3" stroke-linecap="square"></path>
            <path d="M105.5,21.5 L187.506097,21.5" id="Line" stroke="#000000" stroke-width="3" stroke-linecap="square"></path>
            <path d="M123.493334,36.5 L198.5,36.5" id="Line" stroke="#000000" stroke-width="3" stroke-linecap="square"></path>
            <path d="M106.5,66.5 L123.5,66.5" id="Line" stroke="#000000" stroke-width="3" stroke-linecap="square"></path>
            <path d="M105.5,75.5 L122.5,75.5" id="Line" stroke="#000000" stroke-width="3" stroke-linecap="square"></path>
            <path d="M105.5,122.5 L122.5,122.5" id="Line" stroke="#000000" stroke-width="3" stroke-linecap="square"></path>
            <path d="M105.5,131.5 L122.5,131.5" id="Line" stroke="#000000" stroke-width="3" stroke-linecap="square"></path>
            <path d="M199.5,163.5 L611.80963,210.678056" id="Line" stroke="#000000" stroke-width="3" stroke-linecap="square"></path>
            <path d="M355.5,199.5 L355.5,183.5" id="Line" stroke="#000000" stroke-width="3" stroke-linecap="square"></path>
            <path d="M368.5,199.5 L368.5,183.5" id="Line" stroke="#000000" stroke-width="3" stroke-linecap="square"></path>
            <path d="M381.5,201.5 L381.5,186.5" id="Line" stroke="#000000" stroke-width="3" stroke-linecap="square"></path>
            <path d="M394.5,202.5 L394.5,188.5" id="Line" stroke="#000000" stroke-width="3" stroke-linecap="square"></path>
            <path d="M407.5,203.5 L407.5,188.5" id="Line" stroke="#000000" stroke-width="3" stroke-linecap="square"></path>
            <path d="M420.5,204.5 L420.5,191.5" id="Line" stroke="#000000" stroke-width="3" stroke-linecap="square"></path>
            <path d="M433.5,205.5 L433.5,192.5" id="Line" stroke="#000000" stroke-width="3" stroke-linecap="square"></path>
            <path d="M446.5,207.5 L446.5,194.5" id="Line" stroke="#000000" stroke-width="3" stroke-linecap="square"></path>
            <path d="M459.5,208.5 L459.5,195.5" id="Line" stroke="#000000" stroke-width="3" stroke-linecap="square"></path>
            <path d="M472.5,209.5 L472.5,195.5" id="Line" stroke="#000000" stroke-width="3" stroke-linecap="square"></path>
            <path d="M485.5,210.5 L485.5,198.5" id="Line" stroke="#000000" stroke-width="3" stroke-linecap="square"></path>
            <path d="M497.5,212.5 L497.5,200.5" id="Line" stroke="#000000" stroke-width="3" stroke-linecap="square"></path>
            <path d="M509.5,213.5 L509.5,201.5" id="Line" stroke="#000000" stroke-width="3" stroke-linecap="square"></path>
            <path d="M521.5,215.5 L521.5,202.5" id="Line" stroke="#000000" stroke-width="3" stroke-linecap="square"></path>
            <path d="M532.5,215.5 L532.5,204.5" id="Line" stroke="#000000" stroke-width="3" stroke-linecap="square"></path>
            <path d="M543.5,216.5 L543.5,205.5" id="Line" stroke="#000000" stroke-width="3" stroke-linecap="square"></path>
            <path d="M554.5,218.5 L554.5,206.5" id="Line" stroke="#000000" stroke-width="3" stroke-linecap="square"></path>
            <path d="M564.5,218.5 L564.5,207.5" id="Line" stroke="#000000" stroke-width="3" stroke-linecap="square"></path>
            <path d="M575.5,220.5 L575.5,208.5" id="Line" stroke="#000000" stroke-width="3" stroke-linecap="square"></path>
            <path d="M586.5,221.5 L586.5,209.5" id="Line" stroke="#000000" stroke-width="3" stroke-linecap="square"></path>
            <path d="M596.5,221.5 L596.5,210.5" id="Line" stroke="#000000" stroke-width="3" stroke-linecap="square"></path>
            <path d="M605.5,222.5 L605.5,212.5" id="Line" stroke="#000000" stroke-width="3" stroke-linecap="square"></path>
            <path d="M329.5,196.5 L329.5,180.5" id="Line" stroke="#000000" stroke-width="3" stroke-linecap="square"></path>
            <path d="M342.5,197.5 L342.5,182.5" id="Line" stroke="#000000" stroke-width="3" stroke-linecap="square"></path>
            <path d="M264.5,189.5 L264.5,171.5" id="Line" stroke="#000000" stroke-width="3" stroke-linecap="square"></path>
            <path d="M277.5,192.5 L277.5,173.5" id="Line" stroke="#000000" stroke-width="3" stroke-linecap="square"></path>
            <path d="M290.5,193.5 L290.5,175.5" id="Line" stroke="#000000" stroke-width="3" stroke-linecap="square"></path>
            <path d="M303.5,194.5 L303.5,177.5" id="Line" stroke="#000000" stroke-width="3" stroke-linecap="square"></path>
            <path d="M315.5,195.5 L315.5,178.5" id="Line" stroke="#000000" stroke-width="3" stroke-linecap="square"></path>
            <path d="M251.5,188.5 L251.5,171.5" id="Line" stroke="#000000" stroke-width="3" stroke-linecap="square"></path>
            <path d="M213.5,186.5 L213.5,167.5" id="Line" stroke="#000000" stroke-width="3" stroke-linecap="square"></path>
            <path d="M213.5,38.5 L213.5,18.5" id="Line" stroke="#000000" stroke-width="3" stroke-linecap="square"></path>
            <path d="M225.5,188.5 L225.5,167.5" id="Line" stroke="#000000" stroke-width="3" stroke-linecap="square"></path>
            <path d="M238.5,187.5 L238.5,169.5" id="Line" stroke="#000000" stroke-width="3" stroke-linecap="square"></path>
            <path d="M355.5,71.5 L355.5,55.5" id="Line" stroke="#000000" stroke-width="3" stroke-linecap="square"></path>
            <path d="M368.5,73.5 L368.5,57.5" id="Line" stroke="#000000" stroke-width="3" stroke-linecap="square"></path>
            <path d="M381.5,75.5 L381.5,60.5" id="Line" stroke="#000000" stroke-width="3" stroke-linecap="square"></path>
            <path d="M394.5,78.5 L394.5,64.5" id="Line" stroke="#000000" stroke-width="3" stroke-linecap="square"></path>
            <path d="M407.5,81.5 L407.5,66.5" id="Line" stroke="#000000" stroke-width="3" stroke-linecap="square"></path>
            <path d="M420.5,84.5 L420.5,71.5" id="Line" stroke="#000000" stroke-width="3" stroke-linecap="square"></path>
            <path d="M433.5,87.5 L433.5,74.5" id="Line" stroke="#000000" stroke-width="3" stroke-linecap="square"></path>
            <path d="M446.5,90.5 L446.5,77.5" id="Line" stroke="#000000" stroke-width="3" stroke-linecap="square"></path>
            <path d="M459.5,93.5 L459.5,80.5" id="Line" stroke="#000000" stroke-width="3" stroke-linecap="square"></path>
            <path d="M472.5,96.5 L472.5,82.5" id="Line" stroke="#000000" stroke-width="3" stroke-linecap="square"></path>
            <path d="M485.5,99.5 L485.5,87.5" id="Line" stroke="#000000" stroke-width="3" stroke-linecap="square"></path>
            <path d="M497.5,102.5 L497.5,90.5" id="Line" stroke="#000000" stroke-width="3" stroke-linecap="square"></path>
            <path d="M509.5,105.5 L509.5,93.5" id="Line" stroke="#000000" stroke-width="3" stroke-linecap="square"></path>
            <path d="M521.5,108.5 L521.5,95.5" id="Line" stroke="#000000" stroke-width="3" stroke-linecap="square"></path>
            <path d="M532.5,110.5 L532.5,98.5" id="Line" stroke="#000000" stroke-width="3" stroke-linecap="square"></path>
            <path d="M543.5,112.5 L543.5,101.5" id="Line" stroke="#000000" stroke-width="3" stroke-linecap="square"></path>
            <path d="M554.5,116.5 L554.5,104.5" id="Line" stroke="#000000" stroke-width="3" stroke-linecap="square"></path>
            <path d="M564.5,117.5 L564.5,106.5" id="Line" stroke="#000000" stroke-width="3" stroke-linecap="square"></path>
            <path d="M575.5,121.5 L575.5,109.5" id="Line" stroke="#000000" stroke-width="3" stroke-linecap="square"></path>
            <path d="M586.5,124.5 L586.5,112.5" id="Line" stroke="#000000" stroke-width="3" stroke-linecap="square"></path>
            <path d="M596.5,125.5 L596.5,114.5" id="Line" stroke="#000000" stroke-width="3" stroke-linecap="square"></path>
            <path d="M605.5,126.5 L605.5,116.5" id="Line" stroke="#000000" stroke-width="3" stroke-linecap="square"></path>
            <path d="M329.5,64.5 L329.5,48.5" id="Line" stroke="#000000" stroke-width="3" stroke-linecap="square"></path>
            <path d="M342.5,67.5 L342.5,52.5" id="Line" stroke="#000000" stroke-width="3" stroke-linecap="square"></path>
            <path d="M264.5,49.5 L264.5,31.5" id="Line" stroke="#000000" stroke-width="3" stroke-linecap="square"></path>
            <path d="M277.5,52.5 L277.5,34.5" id="Line" stroke="#000000" stroke-width="3" stroke-linecap="square"></path>
            <path d="M290.5,55.5 L290.5,37.5" id="Line" stroke="#000000" stroke-width="3" stroke-linecap="square"></path>
            <path d="M303.5,58.5 L303.5,41.5" id="Line" stroke="#000000" stroke-width="3" stroke-linecap="square"></path>
            <path d="M315.5,61.5 L315.5,44.5" id="Line" stroke="#000000" stroke-width="3" stroke-linecap="square"></path>
            <path d="M251.5,46.5 L251.5,29.5" id="Line" stroke="#000000" stroke-width="3" stroke-linecap="square"></path>
            <path d="M225.5,42.5 L225.5,21.5" id="Line" stroke="#000000" stroke-width="3" stroke-linecap="square"></path>
            <path d="M238.5,43.5 L238.5,25.5" id="Line" stroke="#000000" stroke-width="3" stroke-linecap="square"></path>
        </g>
    </g>
</svg>
